<svg id="Layer_1" data-name="Layer 1" xmlns="http://www.w3.org/2000/svg" viewBox="0 0 361.86 355.42"><defs><style>.cls-1{fill:#686868;}</style></defs><title>dots-menu</title><path class="cls-1" d="M371.13,57.29c-2.21,5.76-3.64,12-6.75,17.19-10,16.69-30.85,23.83-49.21,17.49S284.8,67.35,286.65,48.75c2-20.34,16.85-36.11,36.45-38.72A42.29,42.29,0,0,1,370.5,45.1a7.63,7.63,0,0,0,.63,1.59Z" transform="translate(-9.26 -9.65)"/><path class="cls-1" d="M371.13,327.33c-.46,1.78-.94,3.57-1.38,5.36a42.29,42.29,0,0,1-83.39-10.58c.34-21.46,17.49-40,38.27-41.44,23-1.56,42.25,13.39,45.81,35.5a24.92,24.92,0,0,0,.69,2.67Z" transform="translate(-9.26 -9.65)"/><path class="cls-1" d="M189.49,9.72A42.23,42.23,0,1,1,147.29,52,42.2,42.2,0,0,1,189.49,9.72Z" transform="translate(-9.26 -9.65)"/><path class="cls-1" d="M52.52,365a42.23,42.23,0,1,1,42.29-42.12A42.36,42.36,0,0,1,52.52,365Z" transform="translate(-9.26 -9.65)"/><path class="cls-1" d="M51.54,145.26A42.28,42.28,0,1,1,9.26,187.53,42.5,42.5,0,0,1,51.54,145.26Z" transform="translate(-9.26 -9.65)"/><path class="cls-1" d="M370,187.56a42.24,42.24,0,1,1-42.17-42.3A42.16,42.16,0,0,1,370,187.56Z" transform="translate(-9.26 -9.65)"/><path class="cls-1" d="M230.83,187.68a42.27,42.27,0,1,1-42.1-42.42A42.27,42.27,0,0,1,230.83,187.68Z" transform="translate(-9.26 -9.65)"/><path class="cls-1" d="M189.53,365a42.23,42.23,0,1,1,42.31-42.17A42.37,42.37,0,0,1,189.53,365Z" transform="translate(-9.26 -9.65)"/><path class="cls-1" d="M52.8,9.72a42.23,42.23,0,1,1-42.36,42A42.11,42.11,0,0,1,52.8,9.72Z" transform="translate(-9.26 -9.65)"/></svg>